Coordinates
version=1
nRows=8
nColumns=40
inDegrees=yes

Units are S.I. units (second, meters, Newtons, ...)
Angles are in degrees.

endheader
time	pelvis_tilt	pelvis_list	pelvis_rotation	pelvis_tx	pelvis_ty	pelvis_tz	hip_flexion_r	hip_adduction_r	hip_rotation_r	knee_angle_r	knee_angle_r_beta	ankle_angle_r	subtalar_angle_r	mtp_angle_r	hip_flexion_l	hip_adduction_l	hip_rotation_l	knee_angle_l	knee_angle_l_beta	ankle_angle_l	subtalar_angle_l	mtp_angle_l	lumbar_extension	lumbar_bending	lumbar_rotation	arm_flex_r	arm_add_r	arm_rot_r	elbow_flex_r	pro_sup_r	wrist_flex_r	wrist_dev_r	arm_flex_l	arm_add_l	arm_rot_l	elbow_flex_l	pro_sup_l	wrist_flex_l	wrist_dev_l
     22.15000000	     -5.91196935	     -5.23312393	      1.53385643	      0.98681258	      0.92937026	      0.52142905	     13.20736544	      4.18132004	    -15.21452783	     13.96750251	     13.96750251	      8.85254972	      0.89060858	     -4.33464535	     35.12089535	    -11.36883577	      2.09600737	     41.10636970	     41.10636970	     11.69433409	    -18.22844987	     18.29622981	    -11.64948699	      6.99638572	      2.49243273	     34.87071021	    -19.66284170	     -6.25088232	     50.49895689	     45.66936057	      0.00000000	      0.00000000	      4.18760714	     -7.87979128	     -3.35632579	     36.95655375	     46.68033983	      0.00000000	      0.00000000
     22.16200000	     -6.12148892	     -5.30853167	      1.74043749	      0.98500018	      0.92927785	      0.52119991	     12.68523739	      4.27710030	    -15.70499235	     13.26136725	     13.26136725	      8.64203453	      1.60160012	     -5.52727601	     35.18207655	    -11.20515208	      1.85535546	     37.00148752	     37.00148752	      9.60485930	    -17.69123272	     13.98952075	    -11.49185072	      7.14103499	      3.09479366	     35.08001659	    -20.95722229	     -4.95949229	     54.27049452	     45.47873147	      0.00000000	      0.00000000	      5.21290120	     -7.24837931	     -3.93797447	     31.58176738	     46.72088054	      0.00000000	      0.00000000
     22.17400000	     -6.30432122	     -5.27877996	      1.93651318	      0.98324377	      0.92929744	      0.52087178	     12.17870056	      4.30476843	    -15.82284767	     12.65421516	     12.65421516	      8.70444476	      1.75328628	     -5.56489901	     35.25179857	    -10.86036963	      1.72039798	     33.24807484	     33.24807484	      9.25446583	    -16.41424493	     14.10945386	    -11.40523125	      7.11487265	      2.98754250	     36.38172258	    -20.85804206	     -5.02627613	     55.65411287	     45.43995647	      0.00000000	      0.00000000	      4.15193082	     -7.30124963	     -4.01266797	     30.78051800	     46.70602252	      0.00000000	      0.00000000
     22.18600000	     -6.47301074	     -5.32090213	      2.13331457	      0.98161228	      0.92927647	      0.52048432	     11.58994870	      4.40572311	    -16.07411117	     11.94240319	     11.94240319	      8.75717569	      2.21209839	     -5.70061385	     35.26538162	    -10.62763439	      1.46505208	     29.61986423	     29.61986423	      8.82888754	    -14.61765739	     13.89989866	    -11.31496232	      7.17337832	      2.67671476	     37.60934405	    -20.60454812	     -4.96399273	     57.44248583	     45.38173886	      0.00000000	      0.00000000	      3.14382422	     -7.35802784	     -4.07109899	     29.74310420	     46.69047773	      0.00000000	      0.00000000
     22.19800000	     -6.61805192	     -5.43037888	      2.34724491	      0.98007193	      0.92917237	      0.51994963	     10.96789253	      4.56459791	    -16.44743101	     11.22204386	     11.22204386	      8.81306282	      2.78938563	     -5.91373382	     35.25796610	    -10.47052656	      1.08479548	     26.23327883	     26.23327883	      8.35546981	    -12.48560368	     13.47703396	    -11.24651480	      7.33213789	      2.43245775	     38.66998457	    -20.42050305	     -4.81830396	     59.49248355	     45.31149093	      0.00000000	      0.00000000	      2.21423040	     -7.37152360	     -4.14011501	     28.67738148	     46.67886492	      0.00000000	      0.00000000
     22.21000000	     -6.73648141	     -5.57165014	      2.49980858	      0.97879828	      0.92892796	      0.51937919	     10.27397130	      4.75105739	    -16.91974322	     10.44051297	     10.44051297	      8.69189933	      3.66453738	     -6.68667950	     35.12283130	    -10.39530964	      0.50057105	     22.97294988	     22.97294988	      7.06144016	    -10.25570627	     10.75577305	    -11.23745235	      7.54178747	      2.98125949	     38.33101251	    -21.34747723	     -4.43676644	     64.07690878	     45.15695925	      0.00000000	      0.00000000	      2.06979808	     -7.10803635	     -4.59914807	     26.90955495	     46.71513233	      0.00000000	      0.00000000
     22.22200000	     -6.86390823	     -5.69176014	      2.65364307	      0.97754410	      0.92872232	      0.51875489	      9.62719523	      4.94107916	    -17.15251280	      9.73810850	      9.73810850	      8.78318222	      4.16427390	     -6.73758989	     35.10084206	    -10.26465748	     -0.08125989	     20.30635562	     20.30635562	      6.73357581	     -7.98429551	     10.80061276	    -11.13334655	      7.70123308	      2.66054333	     39.23592449	    -20.88360397	     -4.46267991	     65.97382834	     45.10614173	      0.00000000	      0.00000000	      1.06728199	     -7.17451620	     -4.67738851	     26.20885359	     46.69678144	      0.00000000	      0.00000000
     22.23400000	     -6.97335941	     -5.73805809	      2.76098227	      0.97641900	      0.92850769	      0.51800686	      9.04204519	      5.02028973	    -17.31584425	      9.22735693	      9.22735693	      8.95289107	      4.56657900	     -6.78290533	     35.00053172	    -10.05420678	     -0.74245534	     17.97859992	     17.97859992	      6.38372713	     -6.08562947	     11.03566564	    -11.02151811	      7.76053993	      2.47764693	     39.96780420	    -20.58811886	     -4.39291248	     67.64245907	     45.05513489	      0.00000000	      0.00000000	      0.08108633	     -7.25116432	     -4.72976214	     25.74266158	     46.68097974	      0.00000000	      0.00000000
